<svg width="512" height="512" viewBox="0 0 512 512" fill="none" xmlns="http://www.w3.org/2000/svg">
<path d="M207.8 20.73C114.35 39.05 39.1 114.39 20.8 207.83C-6.83996 348.73 89.45 474.03 219.9 492.93C238.91 495.818 256.07 480.67 256.07 461.44L256.07 460.777C256.07 445.037 244.63 431.897 229.23 429.537C144.88 416.557 80.0301 343.407 80.0301 255.337C80.0301 152.437 168.64 69.8369 273.43 79.9369C364.97 88.8059 432.03 171.187 432.03 263.137V279.297C432.03 301.387 414.09 319.347 392.03 319.347C369.97 319.347 352.02 301.387 352.02 279.297V159.197C352.02 150.35 344.859 143.177 336.01 143.177L304.03 143.181C296.731 143.181 290.83 148.173 288.91 154.861C264.06 142.711 234.67 138.481 202.85 149.755C164.1 163.485 134.73 198.665 129.13 239.395C119.647 308.405 172.94 367.395 240.03 367.395C266.47 367.395 290.46 357.85 309.62 342.514C333.62 373.814 374.85 391.204 419.02 380.004C465.2 369.3 496 324.1 495.1 277.2V256.3C495.1 107.1 361.2 -9.332 207.8 20.73ZM239.1 304.3C212.63 304.3 191.1 282.74 191.1 256.25C191.1 229.76 212.63 208.2 239.1 208.2C265.57 208.2 287.1 229.76 287.1 256.25C287.1 282.74 266.5 304.3 239.1 304.3Z" fill="#999999"/>
</svg>
