<svg width="51" height="43" viewBox="0 0 51 43" fill="none" xmlns="http://www.w3.org/2000/svg">
<path d="M50.9251 32.5008L48.609 40.966C48.2836 42.1627 47.036 43 45.5746 43C20.4418 42.9983 0 25.7656 0 4.57741C0 3.34626 0.9931 2.29315 2.41277 2.02022L12.4543 0.0676784C13.9167 -0.218022 15.411 0.421907 16.0187 1.5894L20.653 10.7012C21.1947 11.7745 20.8293 13.025 19.7584 13.7623L14.3949 17.3928C17.78 23.2059 23.3865 27.9323 30.2841 30.7876L34.6753 26.2695C35.5408 25.3642 37.0353 25.0509 38.3084 25.5158L49.117 29.4217C50.4171 29.9982 51.2638 31.2747 50.9251 32.5008Z" fill="black"/>
</svg>
