<svg width="576" height="512" viewBox="0 0 576 512" fill="none" xmlns="http://www.w3.org/2000/svg">
<path d="M534.722 124.083C528.441 100.433 509.935 81.807 486.438 75.486C443.848 64 273.067 64 273.067 64C273.067 64 102.287 64 59.696 75.486C36.199 81.808 17.693 100.433 11.412 124.083C0 166.95 0 256.388 0 256.388C0 256.388 0 345.826 11.412 388.693C17.693 412.343 36.199 430.193 59.696 436.514C102.287 448 273.067 448 273.067 448C273.067 448 443.847 448 486.438 436.514C509.935 430.193 528.441 412.343 534.722 388.693C546.134 345.826 546.134 256.388 546.134 256.388C546.134 256.388 546.134 166.95 534.722 124.083V124.083ZM217.212 337.591V175.185L359.951 256.39L217.212 337.591V337.591Z" fill="#0B582C"/>
</svg>
